<?xml version="1.0" standalone="no"?>
<!DOCTYPE svg PUBLIC "-//W3C//DTD SVG 1.1//EN" "http://www.w3.org/Graphics/SVG/1.1/DTD/svg11.dtd" >
<!--
2013-9-30: Created.
-->
<svg>
<metadata>
Created by iconfont
</metadata>
<defs>

<font id="iconfont" horiz-adv-x="1024" >
  <font-face
    font-family="iconfont"
    font-weight="500"
    font-stretch="normal"
    units-per-em="1024"
    ascent="896"
    descent="-128"
  />
    <missing-glyph />
    
    <glyph glyph-name="login_hide" unicode="&#58915;" d="M926.15111147 525.0844448c-13.65333333 9.10222187-36.40888853 9.10222187-45.51111147-9.10222293-145.6355552-200.24888853-423.25333333-241.20888853-623.50222187-100.12444374-45.51111147 31.85777813-81.92 68.26666667-109.22666666 113.77777707-9.10222187 13.65333333-31.85777813 18.2044448-45.51111147 9.10222293-13.65333333-9.10222187-18.2044448-31.85777813-9.10222187-45.51111146 31.85777813-50.06222187 77.36888853-91.02222187 122.88-127.43111147 18.2044448-13.65333333 40.96-27.30666667 59.16444374-36.40888853l-86.4711104-86.47111147c-13.65333333-13.65333333-13.65333333-36.40888853 0-50.06222187 4.55111147-4.55111147 13.65333333-9.10222187 22.7555552-9.10222186s18.2044448 4.55111147 22.7555552 9.10222186L334.50666667 292.97777813000005l4.55111146 4.5511104c45.51111147-18.2044448 91.02222187-27.30666667 136.53333334-31.85777706v-127.43111147c0-18.2044448 13.65333333-36.40888853 36.40888853-36.40888853s36.40888853 13.65333333 36.40888853 36.40888853v131.98222187c40.96 4.55111147 77.36888853 9.10222187 118.3288896 18.2044448 0 0 0-4.55111147 4.5511104-4.55111147l100.1244448-100.12444373c4.55111147-4.55111147 13.65333333-9.10222187 22.7555552-9.10222294s18.2044448 4.55111147 22.75555627 9.10222294c13.65333333 13.65333333 13.65333333 36.40888853 0 50.06222186l-81.92 81.92c77.36888853 36.40888853 145.6355552 91.02222187 200.24888853 163.84 9.10222187 13.65333333 4.55111147 31.85777813-9.10222186 45.51111147z"  horiz-adv-x="1024" />

    
    <glyph glyph-name="shanghuguanli" unicode="&#59098;" d="M645.33333312 469.33333312l280.42666688-74.77333312a53.33333344 53.33333344 0 0 0 39.57333375-51.52000031V10.66666687999998a53.33333344 53.33333344 0 0 0-53.33333344-53.33333344h-800.00000062a53.33333344 53.33333344 0 0 0-53.33333344 53.33333344V703.99999969a106.66666688 106.66666688 0 0 0 106.66666688 106.66666687h373.33333312a106.66666688 106.66666688 0 0 0 106.66666688-106.66666687v-234.66666656z m1e-8-82.77333281V37.33333312000002H885.33333312v285.22666688l-240 64.00000031z m-79.99999969 34.66666594V703.99999969a26.66666625 26.66666625 0 0 1-26.66666719 26.66666719h-373.33333312A26.66666625 26.66666625 0 0 1 138.66666688 703.99999969v-666.66666657h426.66666656V421.22666625zM245.33333375 477.33333375a40.00000031 40.00000031 0 0 0 0 79.99999969h213.33333281a40.00000031 40.00000031 0 0 0 0-79.99999969H245.33333375z m0-186.6666675a40.00000031 40.00000031 0 0 0 0 80.00000062h213.33333281a40.00000031 40.00000031 0 0 0 0-80.00000062H245.33333375z"  horiz-adv-x="1024" />

    
    <glyph glyph-name="yonghuguanli" unicode="&#59099;" d="M733.01333375 321.6a40.00000031 40.00000031 0 1 0 0 79.99999969 103.89333375 103.89333375 0 1 1 0 207.78666656 40.00000031 40.00000031 0 1 0 0 80.00000063 183.89333344 183.89333344 0 0 0 123.8933325-319.73333344 255.78666656 255.78666656 0 0 0 131.9466675-223.89333375 40.00000031 40.00000031 0 0 0-80.00000062 0 175.84000031 175.84000031 0 0 1-175.83999938 175.84000031zM547.73333375 333.70666687000005a363.84 363.84 0 0 0 214.45333313-331.84000031 40.00000031 40.00000031 0 0 0-40.00000032-40.00000031H74.66666656a40.00000031 40.00000031 0 0 0-40.00000031 40.00000031c0 147.73333313 88.00000031 274.82666625 214.45333406 331.84000031a255.84 255.84 0 1 0 298.56 1e-8z m-149.33333344 31.94666626a175.84000031 175.84000031 0 1 1 0 351.68000062 175.84000031 175.84000031 0 0 1 0-351.68000062z m-280.96000031-323.73333282H679.46666656a283.84000031 283.84000031 0 0 1-561.97333312 0z"  horiz-adv-x="1024" />

    
    <glyph glyph-name="chechangguanli" unicode="&#59100;" d="M831.99999969 64.00000031000002v-93.33333375a66.66666656 66.66666656 0 0 0-133.33333313 0V64.00000031000002h-373.33333312v-93.33333375a66.66666656 66.66666656 0 0 0-133.33333313 0V64.00000031000002h-26.66666718a106.66666688 106.66666688 0 0 0-106.66666688 106.66666594V437.33333344a106.66666688 106.66666688 0 0 0 94.08 105.91999969L194.13333313 775.99999969A106.66666688 106.66666688 0 0 0 299.19999969 864h425.60000062a106.66666688 106.66666688 0 0 0 105.06666657-88.00000031l41.38666687-232.74666656A106.66666688 106.66666688 0 0 0 965.33333375 437.33333344v-266.66666719a106.66666688 106.66666688 0 0 0-106.66666688-106.66666594H831.99999969z m26.66666719 399.99999938h-693.33333376A26.66666625 26.66666625 0 0 1 138.66666688 437.33333344v-266.66666719a26.66666625 26.66666625 0 0 1 26.66666625-26.66666625h693.33333375a26.66666625 26.66666625 0 0 1 26.66666625 26.66666625V437.33333344a26.66666625 26.66666625 0 0 1-26.66666625 26.66666625zM789.86666656 544.00000031l-38.77333312 218.02666594a26.66666625 26.66666625 0 0 1-26.23999969 21.97333406H299.14666625a26.66666625 26.66666625 0 0 1-26.23999969-21.97333406L234.13333344 544.00000031h555.73333312zM298.66666625 250.66666687999998a53.33333344 53.33333344 0 1 0 0 106.66666687 53.33333344 53.33333344 0 0 0 0-106.66666688z m426.6666675-1e-8a53.33333344 53.33333344 0 1 0 0 106.66666688 53.33333344 53.33333344 0 0 0 0-106.66666688z"  horiz-adv-x="1024" />

    
    <glyph glyph-name="TCQguanli" unicode="&#59101;" d="M471.99999969 348.79999969000005H378.66666688a40.00000031 40.00000031 0 0 0-1e-8 80.00000062h72.26666625L356.79999969 531.5733337500001A40.00000031 40.00000031 0 1 0 415.78666625 585.6L512 480.53333344l96.21333375 105.01333312a40.00000031 40.00000031 0 0 0 58.98666656-54.07999968L573.06666687 428.80000031H645.33333312a40.00000031 40.00000031 0 1 0 1e-8-80.00000062H552.00000031v-41.22666657h93.33333282a40.00000031 40.00000031 0 1 0 0-79.99999968H552.00000031V170.66666625000005a40.00000031 40.00000031 0 1 0-80.00000062 0v56.96000062H378.66666688a40.00000031 40.00000031 0 0 0-1e-8 79.99999969h93.33333282v41.22666656zM512-96A480 480 0 1 0 512 864a480 480 0 0 0 0-960z m0 79.99999969a400.00000031 400.00000031 0 1 1 0 800.00000062 400.00000031 400.00000031 0 0 1 0-800.00000062z"  horiz-adv-x="1024" />

    
    <glyph glyph-name="caiwuguanli" unicode="&#59102;" d="M885.33333312 446.13333375v106.66666594a26.66666625 26.66666625 0 0 1-26.66666625 26.66666719h-693.33333375a26.66666625 26.66666625 0 0 1-26.66666625-26.66666719v-533.33333344a26.66666625 26.66666625 0 0 1 26.66666625-26.66666625h693.33333375a26.66666625 26.66666625 0 0 1 26.66666625 26.66666625v160.00000031h-213.33333281a133.33333312 133.33333312 0 1 0 0 266.66666719h213.33333281z m-554.13333281 213.33333281L611.04000031 841.17333375c56.53333312 36.69333375 132.26666625 19.41333375 169.33333313-37.76000062L874.66666625 658.29333375a106.66666688 106.66666688 0 0 0 90.6666675-105.49333406v-533.33333344a106.66666688 106.66666688 0 0 0-106.66666688-106.66666594h-693.33333375a106.66666688 106.66666688 0 0 0-106.66666687 106.66666594v533.33333344a106.66666688 106.66666688 0 0 0 106.66666687 106.66666687h165.86666719z m146.88 0h300.42666656l-65.22666656 100.37333344c-13.33333313 20.58666656-39.67999969 26.56000031-58.66666687 14.23999969l-176.53333313-114.61333313zM672.00000031 366.13333313a53.33333344 53.33333344 0 0 1 0-106.66666688h213.33333282v106.66666687h-213.33333282z"  horiz-adv-x="1024" />

    
    <glyph glyph-name="shituzonglan" unicode="&#59103;" d="M576.62305625 144.02239969000004H447.34707781L318.39108969-75.70409813000003c-12.47961187-21.17267437-37.33217156-26.6658375-55.57160438-12.21295312-18.29276437 14.45288344-22.93261969 43.35865125-10.55967094 64.53132562L350.55008937 144.02239969000004H191.99502219a106.66334812 106.66334812 0 0 0-106.66334813 106.66334812V757.33665187H71.99875531a39.99875531 39.99875531 0 0 0 0 79.99751063h879.97262344a39.99875531 39.99875531 0 1 0 0-79.99751063H938.63846v-506.65090406a106.66334812 106.66334812 0 0 0-106.66334812-106.66334812h-158.55506719l98.290275-167.35479375c12.42628031-21.22600594 7.7330925-50.13177375-10.55967094-64.53132563-18.23943281-14.506215-43.0919925-9.01305281-55.57160438 12.15962156l-128.95598812 219.72649782z m28.63910906 79.99751062H831.97511187a26.6658375 26.6658375 0 0 1 26.66583751 26.6658375V757.33665187h-693.31176376v-506.65090406a26.6658375 26.6658375 0 0 1 26.66583657-26.6658375h413.32047468zM538.65090406 403.32099844l-107.19666469 66.23793937L350.01677281 405.88091906a39.99875531 39.99875531 0 1 0-49.27846687 63.03803907l103.41011625 80.90415a39.99875531 39.99875531 0 0 0 45.70524469 2.50658812L557.15699469 485.87843063l117.11635687 89.86387031a39.99875531 39.99875531 0 1 0 48.74515032-63.46469156l-139.03567501-106.66334813a39.99875531 39.99875531 0 0 0-45.38525437-2.29326281z"  horiz-adv-x="1024" />

    
    <glyph glyph-name="login_password" unicode="&#59104;" d="M242 504V609C242 750.3 363.32 864 512 864s270-113.7 270-255V504h30a120 120 0 0 0 120-120v-360a120 120 0 0 0-120-120H212a120 120 0 0 0-120 120V384a120 120 0 0 0 120 120h30z m60 0h420V609C722 716.22 628.4 804 512 804S302 716.22 302 609V504z m180-291.96a60 60 0 1 0 60 0v-69.6a30 30 0 1 0-60 0v69.6zM212 444a60 60 0 0 1-60-60v-360a60 60 0 0 1 60-60h600a60 60 0 0 1 60 60V384a60 60 0 0 1-60 60H212z"  horiz-adv-x="1024" />

    
    <glyph glyph-name="exit_account" unicode="&#59105;" d="M193.82 702.1800000000001a30 30 0 0 0 42.42-42.42 390 390 0 1 1 551.52 0 30 30 0 1 0 42.42 42.42 450 450 0 1 0-636.36 0zM512 864a30 30 0 0 0 30-30v-420a30 30 0 0 0-60 0v420A30 30 0 0 0 512 864z"  horiz-adv-x="1024" />

    
    <glyph glyph-name="login_user" unicode="&#59106;" d="M242 204h540a150 150 0 0 0 150-150V-36a60 60 0 0 0-60-60H152a60 60 0 0 0-60 60v90A150 150 0 0 0 242 204z m0-60A90 90 0 0 1 152 54V-36h720v90a90 90 0 0 1-90 90h-540zM512 264A300 300 0 1 0 512 864a300 300 0 0 0 0-600z m0 60a240 240 0 1 1 0 480 240 240 0 0 1 0-480z"  horiz-adv-x="1024" />

    
    <glyph glyph-name="login_yzm" unicode="&#59107;" d="M663.79497219 465.83338969a31.61895281 31.61895281 0 0 0 43.79854875-1.19996063c11.69961281-11.9996025 11.15963063-30.95897438-1.25995782-42.35859656l-196.79348156-180.11403375a31.61895281 31.61895281 0 0 0-44.21853562 1.79994l-101.39664094 109.61636906a29.27902969 29.27902969 0 0 0 2.39992031 42.23860125 31.61895281 31.61895281 0 0 0 43.61855531-2.279925l80.21734313-86.69712844 173.63424844 158.99473407zM931.9860875 281.09950875000004c0-143.75523844-134.75553656-268.73109844-393.16697625-374.86758281a29.99900625 29.99900625 0 0 0-23.81921063 0.47998406c-258.71143031 118.01609063-392.98698187 242.271975-392.98698187 374.38759875V662.56687219a29.99900625 29.99900625 0 0 0 28.19906531 29.99900625c88.73706094 5.39982094 163.85457188 42.65858719 335.86887469 152.3949525l22.61925094 14.39952281a29.99900625 29.99900625 0 0 0 33.47889094-0.95996813c134.63554031-95.99682 235.79218969-146.81513719 361.788015-162.71461031a29.99900625 29.99900625 0 0 0 26.21913187-29.75901375v-374.56759312c1.1399625-3.179895 1.79994-6.59978156 1.79994-10.19966156z m-60.29800219-9.47968594a29.99900625 29.99900625 0 0 0-1.49995031 9.47968594V640.0076193699999c-120.77599969 19.91934-221.15267438 70.197675-346.30852875 157.85477157l-5.51981719-3.53988282C353.78524063 689.38598438 272.60793031 646.96738875 182.01093125 635.38777312v-354.22826624c0-99.11671687 114.77619844-207.05314125 346.06853625-314.38958625 223.55259469 93.83689125 337.30882688 197.81344781 343.60861781 304.90990031z"  horiz-adv-x="1024" />

    
    <glyph glyph-name="search" unicode="&#59108;" d="M801.856 139.392l159.232-159.232a32 32 0 1 0-45.248-45.248l-159.232 159.232a416 416 0 1 0 45.248 45.248z m-67.072 21.76a352 352 0 1 1-497.792 497.856 352 352 0 0 1 497.792-497.792z"  horiz-adv-x="1024" />

    
    <glyph glyph-name="export" unicode="&#59109;" d="M544 324.60799999999995l119.424 119.424a32 32 0 1 0 45.248-45.248l-180.992-180.992a32 32 0 0 0-45.248 0L301.376 398.72a32 32 0 1 0 45.312 45.248L480 310.72V800a32 32 0 0 0 64 0v-475.392zM896 224a32 32 0 1 0 64 0v-128a160 160 0 0 0-160-160h-576A160 160 0 0 0 64 96v128a32 32 0 0 0 64 0v-128A96 96 0 0 1 224 0h576a96 96 0 0 1 96 96v128z"  horiz-adv-x="1024" />

    
    <glyph glyph-name="add" unicode="&#59110;" d="M544 416h384a32 32 0 1 0 0-64h-384v-384a32 32 0 1 0-64 0v384h-384a32 32 0 0 0 0 64h384v384a32 32 0 0 0 64 0v-384z"  horiz-adv-x="1024" />

    
    <glyph glyph-name="arrow_down_white" unicode="&#59111;" d="M515.584 308.416L273.856 541.76a48 48 0 1 1-66.688-69.056l276.224-266.688a48 48 0 0 1 67.84 1.152l266.752 276.224a48 48 0 0 1-69.056 66.688L515.584 308.416z"  horiz-adv-x="1024" />

    
    <glyph glyph-name="arrow_right_white" unicode="&#59112;" d="M587.648 384L350.08 146.432a48 48 0 1 1 67.84-67.904l271.552 271.552a48 48 0 0 1 0 67.84L417.92 689.472a48 48 0 0 1-67.84-67.84L587.648 384z"  horiz-adv-x="1024" />

    
    <glyph glyph-name="select_up" unicode="&#59113;" d="M85.333333 128l426.666667 512 426.666667-512z"  horiz-adv-x="1024" />

    
    <glyph glyph-name="select_down" unicode="&#59114;" d="M85.333333 640l426.666667-512 426.666667 512z"  horiz-adv-x="1024" />

    
    <glyph glyph-name="calendar" unicode="&#59115;" d="M92 564v-600h840V744h-180v-60h-60V744H332v-60H272V744H92v-120h840v-60H92z m240 240h360V864h60v-60h240v-900H32V804h240V864h60v-60zM272 384h120v-60H272V384z m0-180h120v-60H272v60z m180 180h120v-60H452V384z m0-180h120v-60H452v60z m180 180h120v-60h-120V384z m0-180h120v-60h-120v60z"  horiz-adv-x="1024" />

    
    <glyph glyph-name="input_clear" unicode="&#59116;" d="M512-64A448 448 0 1 0 512 832a448 448 0 0 0 0-896z m0 493.248L376.256 564.992a32 32 0 1 1-45.248-45.248L466.688 384l-135.68-135.744a32 32 0 0 1 45.248-45.248L512 338.688l135.744-135.68a32 32 0 1 1 45.248 45.248L557.312 384l135.68 135.744a32 32 0 1 1-45.248 45.248L512 429.312z"  horiz-adv-x="1024" />

    
    <glyph glyph-name="radio_unchecked" unicode="&#59117;" d="M512-96A480 480 0 1 1 512 864a480 480 0 0 1 0-960z m0 60A420 420 0 1 0 512 804a420 420 0 0 0 0-840z"  horiz-adv-x="1024" />

    
    <glyph glyph-name="radio_checked" unicode="&#59118;" d="M512 384m-480 0a480 480 0 1 1 960 0 480 480 0 1 1-960 0ZM336.92 417.12a45 45 0 1 1-69.84-56.7l150-184.8a45 45 0 0 1 68.4-1.74l270 300a45 45 0 1 1-66.9 60.24L453.74 273.24 336.92 417.12z"  horiz-adv-x="1024" />

    
    <glyph glyph-name="check_unchecked" unicode="&#59119;" d="M512-128A512 512 0 1 0 512 896a512 512 0 0 0 0-1024zM256 310.857143a73.142857 73.142857 0 1 1 0 146.285714 73.142857 73.142857 0 0 1 0-146.285714zM512 310.857143a73.142857 73.142857 0 1 1 0 146.285714 73.142857 73.142857 0 0 1 0-146.285714z m256 0a73.142857 73.142857 0 1 1 0 146.285714 73.142857 73.142857 0 0 1 0-146.285714z"  horiz-adv-x="1024" />

    
    <glyph glyph-name="check_fail" unicode="&#59120;" d="M512-128A512 512 0 1 0 512 896a512 512 0 0 0 0-1024z m0 589.531429L382.683429 590.921143a54.857143 54.857143 0 1 1-77.531429-77.531429L434.395429 384 305.152 254.683429a54.857143 54.857143 0 1 1 77.531429-77.531429L512 306.395429l129.316571-129.243429a54.857143 54.857143 0 0 1 77.531429 77.531429L589.604571 384l129.243429 129.316571a54.857143 54.857143 0 0 1-77.531429 77.531429L512 461.604571z"  horiz-adv-x="1024" />

    
    <glyph glyph-name="check_success" unicode="&#59121;" d="M512-128A512 512 0 1 0 512 896a512 512 0 0 0 0-1024z m-60.635429 432.274286L333.970286 439.296a54.857143 54.857143 0 1 1-82.797715-71.972571l156.745143-180.224a54.857143 54.857143 0 0 1 80.896-2.121143l282.112 292.571428a54.857143 54.857143 0 0 1-78.994285 76.214857L451.364571 304.274286z"  horiz-adv-x="1024" />

    
    <glyph glyph-name="closepop" unicode="&#59122;" d="M514.517333 446.848l271.530667 271.530667a42.666667 42.666667 0 0 0 60.330667-60.330667l-271.530667-271.530667 271.530667-271.530666a42.666667 42.666667 0 1 0-60.330667-60.330667l-271.530667 271.530667-271.530666-271.530667a42.666667 42.666667 0 1 0-60.330667 60.330667l271.530667 271.530666L182.613333 658.048a42.666667 42.666667 0 1 0 60.330667 60.330667l271.530667-271.530667z"  horiz-adv-x="1024" />

    
    <glyph glyph-name="xianshi" unicode="&#59123;" d="M512 756.16c229.184 0 416.192-142.656 478.72-345.856a29.12 29.12 0 0 0 0-17.28c-63.616-203.776-249.6-345.792-478.72-345.792-228.8 0-415.552 142.784-478.72 345.856a29.12 29.12 0 0 0 0 17.28C96.64 614.272 282.688 756.16 512 756.16z m0-59.072c-199.104 0-360.32-120.448-418.56-295.36 58.176-174.08 219.968-295.36 418.56-295.36 198.912 0 360.064 120.512 418.56 295.424-57.6 174.144-219.584 295.296-418.56 295.296zM537.856 531.008a100.928 100.928 0 0 1-13.76-50.944c0-56.96 47.36-103.232 105.728-103.232 8.32 0 16.512 0.96 24.32 2.752-11.136-60.288-65.152-105.984-130.048-105.984-72.96 0-132.096 57.792-132.096 129.024 0 71.296 59.136 129.088 132.096 129.088 4.672 0 9.216-0.256 13.76-0.704z"  horiz-adv-x="1024" />

    
    <glyph glyph-name="back" unicode="&#59124;" d="M210.578286 603.428571H621.714286a329.142857 329.142857 0 1 0 0-658.285714h-512a36.571429 36.571429 0 1 0 0 73.142857h512a256 256 0 0 1 0 512H210.578286l144.457143-144.457143a36.571429 36.571429 0 0 0-51.785143-51.712L96.402286 540.964571a36.571429 36.571429 0 0 0 0 51.785143l206.848 206.848a36.571429 36.571429 0 1 0 51.785143-51.712L210.578286 603.428571z"  horiz-adv-x="1024" />

    
    <glyph glyph-name="xitongguanli" unicode="&#59125;" d="M113.777778 839.111111h312.888889a56.888889 56.888889 0 0 0 56.888889-56.888889v-312.888889a56.888889 56.888889 0 0 0-56.888889-56.888889H113.777778a56.888889 56.888889 0 0 0-56.888889 56.888889V782.222222a56.888889 56.888889 0 0 0 56.888889 56.888889z m28.444444-85.333333V497.777778H398.222222V753.777778H142.222222z m-28.444444-398.222222h312.888889a56.888889 56.888889 0 0 0 56.888889-56.888889V-14.222222a56.888889 56.888889 0 0 0-56.888889-56.888889H113.777778a56.888889 56.888889 0 0 0-56.888889 56.888889v312.888889a56.888889 56.888889 0 0 0 56.888889 56.888889z m28.444444-85.333334v-256H398.222222V270.222222H142.222222z m455.111111 85.333334H910.222222a56.888889 56.888889 0 0 0 56.888889-56.888889V-14.222222a56.888889 56.888889 0 0 0-56.888889-56.888889h-312.888889a56.888889 56.888889 0 0 0-56.888889 56.888889v312.888889a56.888889 56.888889 0 0 0 56.888889 56.888889zM625.777778 270.222222v-256h256V270.222222H625.777778z m167.822222 551.424l160.881778-160.938666a56.888889 56.888889 0 0 0 0-80.440889L793.6 419.384889a56.888889 56.888889 0 0 0-80.440889 0L552.220444 580.266667a56.888889 56.888889 0 0 0 0 80.440889l160.938667 160.938666a56.888889 56.888889 0 0 0 80.440889 0z m-40.220444-80.440889L632.604444 620.487111l120.718223-120.661333 120.661333 120.661333-120.661333 120.718222z"  horiz-adv-x="1024" />

    


  </font>
</defs>
</svg>
